<?xml version="1.0" encoding="utf-8"?>
<!-- Generator: Adobe Illustrator 24.0.1, SVG Export Plug-In . SVG Version: 6.00 Build 0)  -->
<svg version="1.1" id="Camada_1" xmlns="http://www.w3.org/2000/svg" xmlns:xlink="http://www.w3.org/1999/xlink" x="0px" y="0px"
	 viewBox="0 0 32.9 39.3" style="enable-background:new 0 0 32.9 39.3;" xml:space="preserve">
<style type="text/css">
	.st0{fill:#4366C4;}
</style>
<g>
	<g>
		<g>
			<path class="st0" d="M3.1,27.5l2-4.9h0.5l2,4.9H7L6.4,26h-2l-0.6,1.5H3.1z M5.4,23.4C5.1,24,4.9,24.5,4.7,25l-0.2,0.5h1.6L6,25
				C5.8,24.5,5.6,24,5.4,23.4L5.4,23.4z"/>
			<path class="st0" d="M9.6,23.9c0.1,0,0.3,0,0.4,0.1c0.1,0,0.2,0.1,0.3,0.1s0.1,0.1,0.2,0.2c0,0.1,0.1,0.1,0.1,0.1h0l0.1-0.4h0.4
				v3.7c0,0.3,0,0.5-0.1,0.7c-0.1,0.2-0.2,0.4-0.4,0.5c-0.2,0.1-0.3,0.2-0.6,0.3c-0.2,0.1-0.5,0.1-0.7,0.1c-0.2,0-0.4,0-0.6-0.1
				S8.4,29.1,8.3,29v-0.5c0.1,0,0.2,0.1,0.2,0.1c0.1,0,0.2,0,0.2,0.1c0.1,0,0.2,0,0.3,0c0.1,0,0.2,0,0.3,0c0.4,0,0.7-0.1,0.9-0.3
				c0.2-0.2,0.3-0.5,0.3-0.9v-0.5h0c-0.1,0.1-0.3,0.2-0.4,0.3s-0.4,0.1-0.6,0.1c-0.1,0-0.2,0-0.3,0c-0.1,0-0.2-0.1-0.3-0.1
				s-0.2-0.1-0.3-0.2S8.4,27,8.3,26.9c-0.1-0.1-0.1-0.3-0.2-0.5c0-0.2-0.1-0.4-0.1-0.6c0-0.3,0-0.6,0.1-0.8c0.1-0.2,0.2-0.4,0.3-0.6
				C8.7,24.2,8.9,24.1,9,24S9.4,23.9,9.6,23.9z M8.7,25.8c0,0.3,0,0.5,0.1,0.7c0.1,0.2,0.1,0.3,0.2,0.4S9.2,27,9.3,27
				s0.2,0.1,0.3,0.1c0.2,0,0.3,0,0.5-0.1s0.3-0.2,0.4-0.3v-1.8c0,0-0.1-0.1-0.1-0.1s-0.1-0.1-0.2-0.2c-0.1,0-0.2-0.1-0.3-0.1
				c-0.1,0-0.2,0-0.3,0c-0.2,0-0.3,0-0.4,0.1S9,24.7,8.9,24.8c-0.1,0.1-0.2,0.3-0.2,0.4C8.7,25.4,8.7,25.6,8.7,25.8z"/>
			<path class="st0" d="M13.9,27.1c0.2,0,0.4,0,0.5,0s0.3-0.1,0.5-0.1v0.5c-0.1,0.1-0.3,0.1-0.5,0.1s-0.4,0.1-0.6,0.1
				c-0.2,0-0.5,0-0.7-0.1c-0.2-0.1-0.4-0.2-0.6-0.3c-0.2-0.1-0.3-0.3-0.4-0.6c-0.1-0.2-0.1-0.5-0.1-0.8c0-0.3,0-0.6,0.1-0.8
				s0.2-0.4,0.3-0.6s0.3-0.3,0.5-0.3s0.4-0.1,0.6-0.1c0.2,0,0.4,0,0.5,0.1c0.2,0.1,0.3,0.2,0.4,0.3c0.1,0.1,0.2,0.3,0.3,0.5
				s0.1,0.5,0.1,0.8c0,0,0,0.1,0,0.1s0,0.1,0,0.1h-2.4c0,0.2,0,0.4,0.1,0.6c0.1,0.2,0.2,0.3,0.3,0.4c0.1,0.1,0.2,0.2,0.4,0.2
				C13.5,27.1,13.7,27.1,13.9,27.1z M13.6,24.4c-0.1,0-0.3,0-0.4,0.1c-0.1,0.1-0.2,0.1-0.3,0.2c-0.1,0.1-0.2,0.2-0.2,0.3
				c-0.1,0.1-0.1,0.2-0.1,0.4h1.8c0-0.1,0-0.3-0.1-0.4c0-0.1-0.1-0.2-0.2-0.3c-0.1-0.1-0.2-0.2-0.3-0.2
				C13.8,24.4,13.7,24.4,13.6,24.4z"/>
			<path class="st0" d="M16.5,24.5L16.5,24.5c0.1-0.1,0.1-0.2,0.2-0.2s0.2-0.1,0.3-0.2s0.2-0.1,0.3-0.1c0.1,0,0.2,0,0.4,0
				c0.2,0,0.3,0,0.4,0.1c0.1,0,0.3,0.1,0.4,0.2c0.1,0.1,0.2,0.2,0.2,0.4s0.1,0.3,0.1,0.6v2.3h-0.6v-2.2c0-0.3-0.1-0.5-0.2-0.6
				s-0.3-0.2-0.5-0.2c-0.2,0-0.4,0.1-0.6,0.2s-0.3,0.3-0.5,0.4v2.5h-0.6V24h0.4L16.5,24.5z"/>
			<path class="st0" d="M19.6,25.8c0-0.2,0-0.5,0.1-0.6c0-0.2,0.1-0.3,0.2-0.5s0.2-0.3,0.3-0.3c0.1-0.1,0.2-0.2,0.3-0.2
				c0.1-0.1,0.2-0.1,0.3-0.1s0.2,0,0.3,0c0.2,0,0.4,0,0.5,0.1c0.2,0.1,0.3,0.2,0.4,0.3h0v-2.1h0.6v5.3h-0.4l-0.1-0.4h0
				c0,0.1-0.1,0.1-0.2,0.2c-0.1,0.1-0.1,0.1-0.2,0.2c-0.1,0-0.2,0.1-0.3,0.1c-0.1,0-0.2,0-0.4,0c-0.2,0-0.4,0-0.6-0.1
				c-0.2-0.1-0.3-0.2-0.5-0.3s-0.3-0.3-0.3-0.5C19.7,26.4,19.6,26.1,19.6,25.8z M20.2,25.8c0,0.2,0,0.4,0.1,0.5s0.1,0.3,0.2,0.4
				c0.1,0.1,0.2,0.2,0.3,0.3c0.1,0.1,0.3,0.1,0.4,0.1c0.1,0,0.2,0,0.3,0s0.2-0.1,0.3-0.1s0.1-0.1,0.2-0.2s0.1-0.1,0.1-0.2v-1.8
				c-0.1-0.1-0.3-0.2-0.4-0.3s-0.3-0.1-0.5-0.1c-0.1,0-0.2,0-0.3,0.1c-0.1,0-0.2,0.1-0.3,0.2c-0.1,0.1-0.2,0.2-0.2,0.4
				S20.2,25.5,20.2,25.8z"/>
			<path class="st0" d="M25.8,27.1L25.8,27.1c-0.1,0.1-0.1,0.1-0.2,0.2s-0.2,0.1-0.2,0.2c-0.1,0-0.2,0.1-0.3,0.1c-0.1,0-0.2,0-0.3,0
				c-0.2,0-0.3,0-0.5-0.1c-0.1,0-0.3-0.1-0.4-0.2c-0.1-0.1-0.2-0.2-0.2-0.4c-0.1-0.1-0.1-0.3-0.1-0.5c0-0.2,0-0.3,0.1-0.5
				s0.1-0.3,0.3-0.3c0.1-0.1,0.2-0.2,0.4-0.2s0.3-0.1,0.5-0.1c0.2,0,0.3,0,0.5,0c0.2,0,0.3,0.1,0.4,0.1h0v-0.2c0-0.1,0-0.2,0-0.3
				s0-0.1-0.1-0.2c-0.1-0.1-0.2-0.2-0.3-0.3s-0.3-0.1-0.6-0.1c-0.2,0-0.3,0-0.5,0c-0.2,0-0.3,0.1-0.5,0.1v-0.5
				c0.1,0,0.1-0.1,0.2-0.1c0.1,0,0.2,0,0.2-0.1c0.1,0,0.2,0,0.3,0c0.1,0,0.2,0,0.3,0c0.3,0,0.6,0.1,0.9,0.2c0.2,0.1,0.4,0.3,0.5,0.5
				c0,0.1,0.1,0.2,0.1,0.3c0,0.1,0,0.2,0,0.3v2.3h-0.5L25.8,27.1z M25.8,26c-0.1,0-0.2-0.1-0.4-0.1c-0.1,0-0.3,0-0.5,0
				c-0.2,0-0.4,0.1-0.6,0.2s-0.2,0.3-0.2,0.5c0,0.1,0,0.2,0,0.3c0,0.1,0.1,0.1,0.1,0.2c0.1,0.1,0.1,0.1,0.2,0.1c0.1,0,0.2,0,0.3,0
				c0.1,0,0.2,0,0.3-0.1s0.2-0.1,0.3-0.1c0.1,0,0.1-0.1,0.2-0.1s0.1-0.1,0.1-0.1V26z"/>
			<path class="st0" d="M29.4,24.5L29.4,24.5c-0.2,0-0.3,0-0.4,0c-0.1,0-0.2,0.1-0.4,0.1s-0.2,0.1-0.3,0.2c-0.1,0.1-0.2,0.2-0.2,0.3
				v2.4h-0.6V24h0.4l0.1,0.5h0c0.1-0.1,0.1-0.2,0.2-0.3s0.2-0.1,0.3-0.2c0.1-0.1,0.2-0.1,0.3-0.1c0.1,0,0.2,0,0.4,0c0,0,0,0,0.1,0
				s0,0,0.1,0V24.5z"/>
			<path class="st0" d="M5.6,32c-0.3,0-0.5,0-0.8,0.1c-0.2,0.1-0.4,0.2-0.6,0.4c-0.2,0.2-0.3,0.4-0.4,0.6S3.7,33.7,3.7,34
				c0,0.3,0,0.6,0.1,0.9c0.1,0.2,0.2,0.4,0.4,0.6c0.2,0.2,0.4,0.3,0.6,0.4C5.1,35.9,5.4,36,5.7,36c0.1,0,0.2,0,0.3,0
				c0.1,0,0.2,0,0.3,0c0.1,0,0.2,0,0.3-0.1s0.2,0,0.2-0.1v0.5c-0.1,0.1-0.3,0.1-0.5,0.1s-0.4,0-0.6,0c-0.4,0-0.8-0.1-1.1-0.2
				C4.2,36.2,4,36,3.7,35.8c-0.2-0.2-0.4-0.5-0.5-0.8s-0.2-0.6-0.2-1c0-0.4,0.1-0.7,0.2-1c0.1-0.3,0.3-0.6,0.5-0.8
				c0.2-0.2,0.5-0.4,0.8-0.5s0.7-0.2,1-0.2c0.1,0,0.2,0,0.3,0c0.1,0,0.2,0,0.3,0s0.2,0,0.3,0.1c0.1,0,0.1,0,0.2,0.1v0.5
				c-0.1,0-0.3-0.1-0.5-0.1C6,32,5.8,32,5.6,32z"/>
			<path class="st0" d="M10.7,34.7c0,0.3,0,0.5-0.1,0.7c-0.1,0.2-0.2,0.4-0.3,0.6c-0.1,0.2-0.3,0.3-0.5,0.4
				c-0.2,0.1-0.4,0.1-0.7,0.1c-0.3,0-0.5,0-0.7-0.1S8,36.1,7.8,36c-0.1-0.2-0.3-0.3-0.3-0.6s-0.1-0.5-0.1-0.7c0-0.3,0-0.5,0.1-0.7
				c0.1-0.2,0.2-0.4,0.3-0.6s0.3-0.3,0.5-0.4s0.4-0.1,0.7-0.1c0.3,0,0.5,0,0.7,0.1c0.2,0.1,0.4,0.2,0.5,0.4c0.1,0.2,0.2,0.4,0.3,0.6
				S10.7,34.4,10.7,34.7z M10.1,34.7c0-0.2,0-0.4-0.1-0.6s-0.1-0.3-0.2-0.4c-0.1-0.1-0.2-0.2-0.3-0.3S9.2,33.3,9,33.3
				c-0.2,0-0.3,0-0.4,0.1c-0.1,0.1-0.2,0.1-0.3,0.3s-0.2,0.3-0.2,0.4C8,34.3,8,34.5,8,34.7c0,0.2,0,0.4,0.1,0.6
				c0.1,0.2,0.1,0.3,0.2,0.4c0.1,0.1,0.2,0.2,0.3,0.3S8.9,36,9,36c0.2,0,0.3,0,0.4-0.1c0.1-0.1,0.2-0.1,0.3-0.3
				c0.1-0.1,0.2-0.3,0.2-0.4C10.1,35.1,10.1,34.9,10.1,34.7z"/>
			<path class="st0" d="M12.1,33.4L12.1,33.4c0.1-0.1,0.1-0.2,0.2-0.2c0.1-0.1,0.2-0.1,0.3-0.2c0.1-0.1,0.2-0.1,0.3-0.1
				c0.1,0,0.2,0,0.4,0c0.2,0,0.3,0,0.4,0.1c0.1,0,0.3,0.1,0.4,0.2c0.1,0.1,0.2,0.2,0.2,0.4c0.1,0.2,0.1,0.3,0.1,0.6v2.3h-0.6v-2.2
				c0-0.3-0.1-0.5-0.2-0.6c-0.1-0.1-0.3-0.2-0.5-0.2c-0.2,0-0.4,0.1-0.6,0.2s-0.3,0.3-0.5,0.4v2.5h-0.6v-3.5H12L12.1,33.4z"/>
			<path class="st0" d="M15.9,33.9c0,0.1,0,0.2,0.1,0.2c0,0.1,0.1,0.1,0.2,0.1c0.1,0,0.1,0.1,0.2,0.1c0.1,0,0.2,0,0.3,0.1
				c0.1,0,0.3,0.1,0.4,0.1s0.2,0.1,0.3,0.2c0.1,0.1,0.2,0.2,0.2,0.3c0.1,0.1,0.1,0.3,0.1,0.5c0,0.2,0,0.3-0.1,0.5
				c-0.1,0.1-0.2,0.2-0.3,0.3c-0.1,0.1-0.3,0.2-0.4,0.2c-0.2,0-0.4,0.1-0.6,0.1c-0.1,0-0.2,0-0.3,0c-0.1,0-0.2,0-0.3-0.1
				c-0.1,0-0.1,0-0.2-0.1c-0.1,0-0.1,0-0.1-0.1v-0.5c0.1,0.1,0.3,0.1,0.4,0.1S16,36,16.2,36c0.1,0,0.3,0,0.4,0
				c0.1,0,0.2-0.1,0.3-0.1c0.1,0,0.1-0.1,0.2-0.2c0-0.1,0.1-0.2,0.1-0.2c0-0.1,0-0.2-0.1-0.2c0-0.1-0.1-0.1-0.2-0.2
				c-0.1,0-0.1-0.1-0.2-0.1c-0.1,0-0.2-0.1-0.3-0.1c-0.1,0-0.2-0.1-0.4-0.1c-0.1,0-0.2-0.1-0.3-0.2s-0.2-0.2-0.2-0.3
				s-0.1-0.3-0.1-0.4c0-0.2,0-0.3,0.1-0.5s0.2-0.2,0.3-0.3c0.1-0.1,0.2-0.2,0.4-0.2c0.1,0,0.3-0.1,0.5-0.1c0.2,0,0.4,0,0.5,0.1
				c0.2,0,0.3,0.1,0.4,0.1v0.5c-0.1-0.1-0.3-0.1-0.4-0.1c-0.1,0-0.3-0.1-0.4-0.1c-0.1,0-0.2,0-0.3,0c-0.1,0-0.2,0.1-0.2,0.1
				c-0.1,0-0.1,0.1-0.1,0.2C15.9,33.7,15.9,33.8,15.9,33.9z"/>
			<path class="st0" d="M19.9,36.5c-0.2,0-0.3,0-0.5-0.1c-0.1,0-0.3-0.1-0.4-0.2s-0.2-0.2-0.3-0.3c-0.1-0.1-0.1-0.2-0.2-0.3
				c0-0.1-0.1-0.2-0.1-0.3c0-0.1,0-0.2,0-0.3v-2.1H19v2.1c0,0.2,0,0.4,0.1,0.5c0.1,0.1,0.2,0.3,0.3,0.3c0.1,0.1,0.3,0.1,0.5,0.1
				c0.2,0,0.4,0,0.5-0.1s0.2-0.2,0.3-0.4c0-0.1,0.1-0.3,0.1-0.4v-2.1h0.6v2.1c0,0.1,0,0.2,0,0.3c0,0.1,0,0.2-0.1,0.3
				c0,0.1-0.1,0.2-0.2,0.3s-0.2,0.2-0.3,0.3c-0.1,0.1-0.2,0.1-0.4,0.2S20,36.5,19.9,36.5z"/>
			<path class="st0" d="M22.4,36.4v-5.3h0.6v5.3H22.4z"/>
			<path class="st0" d="M25.9,36.4c0,0-0.1,0-0.2,0.1c-0.1,0-0.2,0-0.4,0c-0.2,0-0.3,0-0.5-0.1c-0.1,0-0.2-0.1-0.3-0.2
				c-0.1-0.1-0.2-0.2-0.2-0.3c0-0.1-0.1-0.3-0.1-0.4v-2.1h-0.7v-0.5h0.7V32h0.6v0.9h1v0.5h-1v2c0,0.1,0,0.2,0,0.2
				c0,0.1,0.1,0.1,0.1,0.2s0.1,0.1,0.2,0.1c0.1,0,0.2,0,0.3,0c0.1,0,0.2,0,0.2,0c0.1,0,0.2,0,0.2,0V36.4z"/>
			<path class="st0" d="M28.7,36L28.7,36c-0.1,0.1-0.1,0.1-0.2,0.2c-0.1,0.1-0.2,0.1-0.2,0.2c-0.1,0-0.2,0.1-0.3,0.1
				c-0.1,0-0.2,0-0.3,0c-0.2,0-0.3,0-0.5-0.1c-0.1,0-0.3-0.1-0.4-0.2s-0.2-0.2-0.2-0.4c-0.1-0.1-0.1-0.3-0.1-0.5
				c0-0.2,0-0.3,0.1-0.5c0.1-0.1,0.1-0.3,0.3-0.3c0.1-0.1,0.2-0.2,0.4-0.2s0.3-0.1,0.5-0.1c0.2,0,0.3,0,0.5,0c0.2,0,0.3,0.1,0.4,0.1
				h0v-0.2c0-0.1,0-0.2,0-0.3c0-0.1,0-0.1-0.1-0.2c-0.1-0.1-0.2-0.2-0.3-0.3c-0.1-0.1-0.3-0.1-0.6-0.1c-0.2,0-0.3,0-0.5,0
				c-0.2,0-0.3,0.1-0.5,0.1v-0.5c0.1,0,0.1-0.1,0.2-0.1c0.1,0,0.2,0,0.2-0.1c0.1,0,0.2,0,0.3,0s0.2,0,0.3,0c0.3,0,0.6,0.1,0.9,0.2
				c0.2,0.1,0.4,0.3,0.5,0.5c0,0.1,0.1,0.2,0.1,0.3c0,0.1,0,0.2,0,0.3v2.3h-0.5L28.7,36z M28.6,34.9c-0.1,0-0.2-0.1-0.4-0.1
				c-0.1,0-0.3,0-0.5,0c-0.2,0-0.4,0.1-0.6,0.2C27.1,35,27,35.2,27,35.4c0,0.1,0,0.2,0.1,0.3c0,0.1,0.1,0.1,0.1,0.2
				c0.1,0.1,0.1,0.1,0.2,0.1s0.2,0,0.3,0c0.1,0,0.2,0,0.3-0.1s0.2-0.1,0.3-0.1c0.1,0,0.1-0.1,0.2-0.1s0.1-0.1,0.1-0.1V34.9z"/>
		</g>
	</g>
</g>
<g>
	<g>
		<g>
			<path class="st0" d="M24.2,14.6l-2.1-2.1c-0.6-0.6-1.5-0.6-2.1,0l-0.3,0.3l4.2,4.2l0.3-0.3C24.8,16.1,24.7,15.1,24.2,14.6z"/>
		</g>
	</g>
	<g>
		<g>
			<path class="st0" d="M19,13.5c-0.4,0.3-1.1,0.3-1.5-0.1l-4.1-4.1c-0.4-0.4-0.4-1-0.1-1.5L9.1,3.7c-1.8,2.1-1.7,5.2,0.3,7.2
				l6.5,6.5c1.9,1.9,5,2.1,7.2,0.3L19,13.5z"/>
		</g>
	</g>
	<g>
		<g>
			<path class="st0" d="M14.3,4.7l-2.1-2.1c-0.6-0.6-1.5-0.6-2.1,0L9.8,3L14,7.1l0.3-0.3C14.9,6.2,14.9,5.3,14.3,4.7z"/>
		</g>
	</g>
</g>
</svg>
