<?xml version="1.0" encoding="utf-8"?>
<!-- Generator: Adobe Illustrator 24.0.1, SVG Export Plug-In . SVG Version: 6.00 Build 0)  -->
<svg version="1.1" id="Camada_1" xmlns="http://www.w3.org/2000/svg" xmlns:xlink="http://www.w3.org/1999/xlink" x="0px" y="0px"
	 viewBox="0 0 21.5 16.8" style="enable-background:new 0 0 21.5 16.8;" xml:space="preserve">
<style type="text/css">
	.st0{fill:#FFFFFF;}
</style>
<path class="st0" d="M19.6,10.3H1.9c-1,0-1.9-0.9-1.9-1.9v0c0-1,0.9-1.9,1.9-1.9h17.7c1,0,1.9,0.9,1.9,1.9v0
	C21.5,9.4,20.6,10.3,19.6,10.3z"/>
<path class="st0" d="M19.6,16.8H1.9c-1,0-1.9-0.9-1.9-1.9v0c0-1,0.9-1.9,1.9-1.9h17.7c1,0,1.9,0.9,1.9,1.9v0
	C21.5,15.9,20.6,16.8,19.6,16.8z"/>
<path class="st0" d="M19.6,3.8H1.9C0.9,3.8,0,2.9,0,1.9v0C0,0.9,0.9,0,1.9,0l17.7,0c1,0,1.9,0.9,1.9,1.9v0
	C21.5,2.9,20.6,3.8,19.6,3.8z"/>
</svg>
