<?xml version="1.0" encoding="utf-8"?>
<!-- Generator: Adobe Illustrator 24.0.1, SVG Export Plug-In . SVG Version: 6.00 Build 0)  -->
<svg version="1.1" id="Camada_1" xmlns="http://www.w3.org/2000/svg" xmlns:xlink="http://www.w3.org/1999/xlink" x="0px" y="0px"
	 viewBox="0 0 32.9 39.3" style="enable-background:new 0 0 32.9 39.3;" xml:space="preserve">
<style type="text/css">
	.st0{fill:#4366C4;}
	.st1{fill:none;}
	.st2{font-family:'Corbel';}
	.st3{font-size:7.4381px;}
</style>
<g>
	<path class="st0" d="M23.4,11.9h-14c-0.7,0-1.4-0.6-1.4-1.4V10c0-0.7,0.6-1.4,1.4-1.4h14c0.7,0,1.4,0.6,1.4,1.4v0.5
		C24.8,11.3,24.2,11.9,23.4,11.9z"/>
	<path class="st0" d="M14.6,17.7V3.4c0-0.7,0.5-1.2,1.2-1.2h0.8c0.7,0,1.2,0.5,1.2,1.2v14.3c0,0.7-0.5,1.2-1.2,1.2h-0.8
		C15.1,18.9,14.6,18.4,14.6,17.7z"/>
</g>
<g>
	<rect x="0" y="22.2" class="st1" width="32.9" height="17.1"/>
	<text transform="matrix(1 0 0 1 1.6818 27.4738)"><tspan x="0" y="0" class="st0 st2 st3">Primeiros </tspan><tspan x="1.1" y="8.9" class="st0 st2 st3">Socorros</tspan></text>
</g>
</svg>
