<?xml version="1.0" encoding="utf-8"?>
<!-- Generator: Adobe Illustrator 24.0.1, SVG Export Plug-In . SVG Version: 6.00 Build 0)  -->
<svg version="1.1" id="Camada_1" xmlns="http://www.w3.org/2000/svg" xmlns:xlink="http://www.w3.org/1999/xlink" x="0px" y="0px"
	 viewBox="0 0 16.7 16.7" style="enable-background:new 0 0 16.7 16.7;" xml:space="preserve">
<style type="text/css">
	.st0{fill:#FFFFFF;}
</style>
<g>
	<g>
		<g>
			<path class="st0" d="M16.3,12.4l-2.1-2.1c-0.6-0.6-1.5-0.6-2.1,0l-0.3,0.3l4.2,4.2l0.3-0.3C16.9,13.9,16.9,12.9,16.3,12.4z"/>
		</g>
	</g>
	<g>
		<g>
			<path class="st0" d="M11.1,11.3c-0.4,0.3-1.1,0.3-1.5-0.1L5.5,7.1c-0.4-0.4-0.4-1-0.1-1.5L1.3,1.5c-1.8,2.1-1.7,5.2,0.3,7.2
				l6.5,6.5c1.9,1.9,5,2.1,7.2,0.3L11.1,11.3z"/>
		</g>
	</g>
	<g>
		<g>
			<path class="st0" d="M6.5,2.5L4.4,0.4c-0.6-0.6-1.5-0.6-2.1,0L1.9,0.8l4.2,4.2l0.3-0.3C7,4,7,3.1,6.5,2.5z"/>
		</g>
	</g>
</g>
</svg>
