<?xml version="1.0" encoding="utf-8"?>
<!-- Generator: Adobe Illustrator 24.0.1, SVG Export Plug-In . SVG Version: 6.00 Build 0)  -->
<svg version="1.1" id="Camada_1" xmlns="http://www.w3.org/2000/svg" xmlns:xlink="http://www.w3.org/1999/xlink" x="0px" y="0px"
	 viewBox="0 0 201.4 43.3" style="enable-background:new 0 0 201.4 43.3;" xml:space="preserve">
<style type="text/css">
	.st0{fill:#FFFFFF;}
</style>
<g>
	<path class="st0" d="M14,25.4c-0.4,1.4-1.1,2.9-2.2,3.9c-1.4,1.4-3,1.8-4.7,1.8c-1.3,0-2.9-0.3-4.1-2c-0.7-1.1-0.9-2.3-0.9-3.4
		c0-2.9,0.9-5.5,2.5-7.4c1.8-2.2,3.8-2.8,5.8-2.8c0.9,0,2.2,0.1,3.2,1.3c1.1,1.2,1.2,3,1.2,3.8v0.5h-3.6v-0.3c0-0.4,0-0.9-0.3-1.3
		c-0.3-0.5-0.8-0.6-1.2-0.6c-0.8,0-1.3,0.3-1.9,0.9C6.7,21.1,6,23.4,6,25.4c0,0.4,0,1,0.3,1.5c0.4,0.7,0.9,0.8,1.6,0.8
		c0.6,0,1-0.1,1.5-0.6c0.5-0.4,0.8-1.1,0.9-1.7H14z"/>
	<path class="st0" d="M17.2,30.7h-3.7L21.2,16h3.4l1.6,14.7h-3.7l-0.2-2.4h-3.8L17.2,30.7z M22.2,25.5l-0.2-5l-2.3,5H22.2z"/>
	<path class="st0" d="M36.3,30.7h-5.4h-3.6L30.4,16h3.7l-2.4,11.3H37L36.3,30.7z"/>
	<path class="st0" d="M49,21.7l-0.6,3.1h-5.6l-0.6,2.5h6.6l-0.7,3.4h-6.7h-3.6L40.9,16h3.6h6.6l-0.7,3.4h-6.4l-0.5,2.3H49z"/>
	<path class="st0" d="M55.4,22.3l-1.8,8.4H50L53.1,16h3.7l2,8.4h0.1l1.8-8.4h3.7l-3.1,14.7h-3.7L55.4,22.3L55.4,22.3z"/>
	<path class="st0" d="M70.6,16h2.2c1.1,0,2.5,0.2,3.7,1.7c0.8,1.1,0.9,2.5,0.9,3.5c0,1.3-0.2,2.5-0.6,3.5c-0.5,1.6-1.5,3.1-2.7,4.2
		c-0.9,0.8-2.5,1.7-4.9,1.7h-1.7h-3.6L67,16H70.6z M68.3,27.3h1.1c1.4,0,2.4-0.8,2.9-1.5c0.8-1,1.3-2.3,1.3-4c0-0.5,0-1.2-0.4-1.7
		c-0.5-0.7-1.3-0.7-2-0.7H70L68.3,27.3z"/>
	<path class="st0" d="M80.2,30.7h-3.7L84.2,16h3.4l1.6,14.7h-3.7l-0.2-2.4h-3.8L80.2,30.7z M85.2,25.5l-0.2-5l-2.3,5H85.2z
		 M89.4,12.1l-2.7,2.8h-2.2l1.8-2.8H89.4z"/>
	<path class="st0" d="M93.4,16h3.6h3.1c0.8,0,1.9,0.1,2.7,1.2c0.6,0.7,0.7,1.6,0.7,2.2c0,1.1-0.2,2.1-1,3.1c-0.4,0.6-1.1,1-1.9,1.4
		V24c0.4,0.1,0.7,0.4,0.9,0.7c0.3,0.4,0.4,0.9,0.4,1.3c0,0.6-0.1,1-0.2,1.4l-0.2,1.2c-0.1,0.3-0.1,0.6-0.1,1c0,0.4,0,0.7,0.2,1h-3.7
		c-0.1-0.2-0.2-0.5-0.2-0.8c0-0.1,0-0.4,0.1-1.1l0.2-1c0.1-0.4,0.1-0.7,0.1-1.2c0-0.2,0-0.6-0.4-0.9c-0.3-0.3-0.9-0.3-1.1-0.3h-1.4
		L94,30.7h-3.7L93.4,16z M95.7,22.6h1.4c0.8,0,1.5-0.3,1.9-0.7c0.2-0.2,0.6-0.7,0.6-1.4c0-0.4-0.1-0.7-0.3-0.9
		c-0.3-0.3-0.7-0.3-1.1-0.3h-1.8L95.7,22.6z"/>
	<path class="st0" d="M110.3,16l-3.1,14.7h-3.7l3.1-14.7H110.3z"/>
	<path class="st0" d="M121.5,28.3c-1.3,1.6-3.2,2.8-5.8,2.8c-1.3,0-3-0.3-4.1-2c-0.8-1.2-0.9-2.5-0.9-3.6c0-2.6,1-5.4,2.5-7.2
		c2.1-2.5,4.5-2.8,5.8-2.8c1.4,0,3.1,0.4,4.1,2c0.6,0.9,0.9,2.3,0.9,3.6C123.9,23.7,122.9,26.6,121.5,28.3z M114.5,25.6
		c0,0.4,0,0.9,0.3,1.4c0.3,0.6,0.8,0.9,1.5,0.9c0.8,0,1.3-0.3,1.9-0.9c1-1.2,1.8-3.8,1.8-5.4c0-0.4,0-1.2-0.3-1.7
		c-0.2-0.5-0.7-0.9-1.5-0.9c-0.5,0-1.2,0.1-1.9,0.9c-1.1,1.1-1.5,3.3-1.6,3.6C114.6,24.1,114.5,24.9,114.5,25.6z"/>
</g>
</svg>
