<?xml version="1.0" encoding="utf-8"?>
<!-- Generator: Adobe Illustrator 24.0.1, SVG Export Plug-In . SVG Version: 6.00 Build 0)  -->
<svg version="1.1" id="Camada_1" xmlns="http://www.w3.org/2000/svg" xmlns:xlink="http://www.w3.org/1999/xlink" x="0px" y="0px"
	 viewBox="0 0 201.4 43.3" style="enable-background:new 0 0 201.4 43.3;" xml:space="preserve">
<style type="text/css">
	.st0{fill:#FFFFFF;}
</style>
<g>
	<path class="st0" d="M15.7,11.1c-0.4,1.4-1.1,2.9-2.2,3.9c-1.4,1.4-3,1.8-4.7,1.8c-1.3,0-2.9-0.3-4.1-2c-0.7-1.1-0.9-2.3-0.9-3.4
		c0-2.9,0.9-5.5,2.5-7.4c1.8-2.2,3.8-2.8,5.8-2.8c0.9,0,2.2,0.1,3.2,1.3c1.1,1.2,1.2,3,1.2,3.8v0.5h-3.6V6.5c0-0.4,0-0.9-0.3-1.3
		c-0.3-0.5-0.8-0.6-1.2-0.6c-0.8,0-1.3,0.3-1.9,0.9c-1.1,1.2-1.8,3.5-1.8,5.6c0,0.4,0,1,0.3,1.5c0.4,0.7,0.9,0.8,1.6,0.8
		c0.6,0,1-0.1,1.5-0.6c0.5-0.4,0.8-1.1,0.9-1.7H15.7z"/>
	<path class="st0" d="M28.9,10.9c-0.2,0.9-0.7,2.7-1.8,3.9c-1,1.1-2.7,2-4.9,2c-0.6,0-1.9-0.1-2.9-0.7c-0.9-0.5-1.7-1.6-1.7-3.4
		c0-0.6,0.1-1.2,0.2-1.9l1.9-9.2h3.7l-1.9,8.8c-0.1,0.4-0.2,0.9-0.2,1.4c0,0.3,0,0.7,0.2,1c0.3,0.6,0.9,0.6,1.2,0.6
		c0.5,0,1-0.1,1.6-0.7c0.5-0.5,0.8-1.3,1-2.3l1.9-8.8h3.7L28.9,10.9z"/>
	<path class="st0" d="M37.2,1.7l-3.1,14.7h-3.7l3.1-14.7H37.2z"/>
	<path class="st0" d="M43.5,1.7h2.2c1.1,0,2.5,0.2,3.7,1.7c0.8,1.1,0.9,2.5,0.9,3.5c0,1.3-0.2,2.5-0.6,3.5c-0.5,1.6-1.5,3.1-2.7,4.2
		c-0.9,0.8-2.5,1.7-4.9,1.7h-1.7h-3.6l3.1-14.7H43.5z M41.1,13h1.1c1.4,0,2.4-0.8,2.9-1.5c0.8-1,1.3-2.3,1.3-4c0-0.5,0-1.2-0.4-1.7
		c-0.5-0.7-1.3-0.7-2-0.7h-1.2L41.1,13z"/>
	<path class="st0" d="M53.1,16.4h-3.7l7.7-14.7h3.4l1.6,14.7h-3.7L58.1,14h-3.8L53.1,16.4z M58,11.2l-0.2-5l-2.3,5H58z"/>
	<path class="st0" d="M69.9,1.7h2.2c1.1,0,2.5,0.2,3.7,1.7c0.8,1.1,0.9,2.5,0.9,3.5c0,1.3-0.2,2.5-0.6,3.5c-0.5,1.6-1.5,3.1-2.7,4.2
		c-0.9,0.8-2.5,1.7-4.9,1.7h-1.7h-3.6l3.1-14.7H69.9z M67.6,13h1.1c1.4,0,2.4-0.8,2.9-1.5c0.8-1,1.3-2.3,1.3-4c0-0.5,0-1.2-0.4-1.7
		c-0.5-0.7-1.3-0.7-2-0.7h-1.2L67.6,13z"/>
	<path class="st0" d="M88.7,14c-1.3,1.6-3.2,2.8-5.8,2.8c-1.3,0-3-0.3-4.1-2c-0.8-1.2-0.9-2.5-0.9-3.6c0-2.6,1-5.4,2.5-7.2
		c2.1-2.5,4.5-2.8,5.8-2.8c1.4,0,3.1,0.4,4.1,2c0.6,0.9,0.9,2.3,0.9,3.6C91.2,9.4,90.2,12.2,88.7,14z M81.8,11.2
		c0,0.4,0,0.9,0.3,1.4c0.3,0.6,0.8,0.9,1.5,0.9c0.8,0,1.3-0.3,1.9-0.9c1-1.2,1.8-3.8,1.8-5.4c0-0.4,0-1.2-0.3-1.7
		c-0.2-0.5-0.7-0.9-1.5-0.9c-0.5,0-1.2,0.1-1.9,0.9c-1.1,1.1-1.5,3.3-1.6,3.6C81.9,9.8,81.8,10.5,81.8,11.2z"/>
	<path class="st0" d="M95.6,11.6c-0.1,0.7-0.1,1.4,0.3,1.8c0.2,0.3,0.7,0.4,1.2,0.4c0.6,0,0.9-0.2,1.2-0.4c0.5-0.4,0.8-0.8,0.8-1.4
		c0-0.3,0-0.7-0.4-0.9c-0.2-0.2-0.5-0.2-1.2-0.5L95.8,10c-0.7-0.2-1.3-0.5-1.8-1.2c-0.4-0.5-0.6-1.2-0.6-2c0-1.4,0.7-3.1,2.1-4.2
		c1.2-0.9,2.6-1.3,4.1-1.3c0.9,0,2.2,0.2,3.1,1c0.7,0.7,0.9,1.8,0.9,2.8c0,0.2,0,0.4,0,0.7h-3.5c0.1-0.5,0-0.9-0.2-1.1
		c-0.3-0.4-0.8-0.4-1-0.4c-0.4,0-0.8,0.1-1.2,0.4c-0.5,0.4-0.6,0.8-0.6,1.1c0,0.2,0,0.5,0.3,0.7c0.1,0.1,0.4,0.2,0.9,0.4l1.8,0.7
		c0.8,0.3,1.5,0.5,2.1,1.2c0.4,0.6,0.6,1.3,0.6,2.1c0,1.2-0.4,2.9-2,4.3c-1.4,1.2-2.8,1.6-4.4,1.6c-1.2,0-2.7-0.2-3.7-1.6
		c-0.7-0.8-0.8-1.8-0.8-2.9c0-0.3,0-0.5,0-0.8H95.6z"/>
	<path class="st0" d="M9.8,26.9h2.5c0.8,0,2.2,0.1,3.1,1.4c0.7,1,0.8,2,0.8,2.6c0,2.1-0.9,3.7-2,4.6c-1.1,0.9-2.6,1.5-4.2,1.5H7.8
		l-1,4.7H3.1l3.1-14.7H9.8z M8.4,33.7h1.5c0.7,0,1.3-0.2,1.7-0.5c0.4-0.3,0.7-0.9,0.7-1.6c0-0.4-0.1-0.8-0.3-1
		c-0.3-0.4-0.8-0.4-1.3-0.4H9.1L8.4,33.7z"/>
	<path class="st0" d="M27,32.6l-0.6,3.1h-5.6l-0.6,2.5h6.6l-0.7,3.4h-6.7h-3.6L19,26.9h3.6h6.6l-0.7,3.4H22l-0.5,2.3H27z"/>
	<path class="st0" d="M32,36.8c-0.1,0.7-0.1,1.4,0.3,1.8c0.2,0.3,0.7,0.4,1.2,0.4c0.6,0,0.9-0.2,1.2-0.4c0.5-0.4,0.8-0.8,0.8-1.4
		c0-0.3,0-0.7-0.4-0.9c-0.2-0.2-0.5-0.2-1.2-0.5l-1.7-0.6c-0.7-0.2-1.3-0.5-1.8-1.2c-0.4-0.5-0.6-1.2-0.6-2c0-1.4,0.7-3.1,2.1-4.2
		c1.2-0.9,2.6-1.3,4.1-1.3c0.9,0,2.2,0.2,3.1,1c0.7,0.7,0.9,1.8,0.9,2.8c0,0.2,0,0.4,0,0.7h-3.5c0.1-0.5,0-0.9-0.2-1.1
		c-0.3-0.4-0.8-0.4-1-0.4c-0.4,0-0.8,0.1-1.2,0.4c-0.5,0.4-0.6,0.8-0.6,1.1c0,0.2,0,0.5,0.3,0.7c0.1,0.1,0.4,0.2,0.9,0.4l1.8,0.7
		c0.8,0.3,1.5,0.5,2.1,1.2c0.4,0.6,0.6,1.3,0.6,2.1c0,1.2-0.4,2.9-2,4.3c-1.4,1.2-2.8,1.6-4.4,1.6c-1.2,0-2.7-0.2-3.7-1.6
		c-0.7-0.8-0.8-1.8-0.8-2.9c0-0.3,0-0.5,0-0.8H32z"/>
	<path class="st0" d="M44.2,36.8c-0.1,0.7-0.1,1.4,0.3,1.8c0.2,0.3,0.7,0.4,1.2,0.4c0.6,0,0.9-0.2,1.2-0.4c0.5-0.4,0.8-0.8,0.8-1.4
		c0-0.3,0-0.7-0.4-0.9c-0.2-0.2-0.5-0.2-1.2-0.5l-1.7-0.6c-0.7-0.2-1.3-0.5-1.8-1.2c-0.4-0.5-0.6-1.2-0.6-2c0-1.4,0.7-3.1,2.1-4.2
		c1.2-0.9,2.6-1.3,4.1-1.3c0.9,0,2.2,0.2,3.1,1c0.7,0.7,0.9,1.8,0.9,2.8c0,0.2,0,0.4,0,0.7h-3.5c0.1-0.5,0-0.9-0.2-1.1
		c-0.3-0.4-0.8-0.4-1-0.4c-0.4,0-0.8,0.1-1.2,0.4c-0.5,0.4-0.6,0.8-0.6,1.1c0,0.2,0,0.5,0.3,0.7c0.1,0.1,0.4,0.2,0.9,0.4l1.8,0.7
		c0.8,0.3,1.5,0.5,2.1,1.2c0.4,0.6,0.6,1.3,0.6,2.1c0,1.2-0.4,2.9-2,4.3C48,41.7,46.6,42,45,42c-1.2,0-2.7-0.2-3.7-1.6
		c-0.7-0.8-0.8-1.8-0.8-2.9c0-0.3,0-0.5,0-0.8H44.2z"/>
	<path class="st0" d="M63.9,39.2c-1.3,1.6-3.2,2.8-5.8,2.8c-1.3,0-3-0.3-4.1-2c-0.8-1.2-0.9-2.5-0.9-3.6c0-2.6,1-5.4,2.5-7.2
		c2.1-2.5,4.5-2.8,5.8-2.8c1.4,0,3.1,0.4,4.1,2c0.6,0.9,0.9,2.3,0.9,3.6C66.4,34.6,65.4,37.4,63.9,39.2z M57,36.4
		c0,0.4,0,0.9,0.3,1.4c0.3,0.6,0.8,0.9,1.5,0.9c0.8,0,1.3-0.3,1.9-0.9c1-1.2,1.8-3.8,1.8-5.4c0-0.4,0-1.2-0.3-1.7
		c-0.2-0.5-0.7-0.9-1.5-0.9c-0.5,0-1.2,0.1-1.9,0.9c-1.1,1.1-1.5,3.3-1.6,3.6C57.1,35,57,35.7,57,36.4z"/>
	<path class="st0" d="M69.2,41.6h-3.7l7.7-14.7h3.4l1.6,14.7h-3.7l-0.2-2.4h-3.8L69.2,41.6z M74.1,36.4l-0.2-5l-2.3,5H74.1z"/>
	<path class="st0" d="M86.1,26.9L83,41.6h-3.7l3.1-14.7H86.1z"/>
	<path class="st0" d="M89.6,36.8c-0.1,0.7-0.1,1.4,0.3,1.8c0.2,0.3,0.7,0.4,1.2,0.4c0.6,0,0.9-0.2,1.2-0.4c0.5-0.4,0.8-0.8,0.8-1.4
		c0-0.3,0-0.7-0.4-0.9c-0.2-0.2-0.5-0.2-1.2-0.5l-1.7-0.6C89.2,35,88.5,34.7,88,34c-0.4-0.5-0.6-1.2-0.6-2c0-1.4,0.7-3.1,2.1-4.2
		c1.2-0.9,2.6-1.3,4.1-1.3c0.9,0,2.2,0.2,3.1,1c0.7,0.7,0.9,1.8,0.9,2.8c0,0.2,0,0.4,0,0.7h-3.5c0.1-0.5,0-0.9-0.2-1.1
		c-0.3-0.4-0.8-0.4-1-0.4c-0.4,0-0.8,0.1-1.2,0.4c-0.5,0.4-0.6,0.8-0.6,1.1c0,0.2,0,0.5,0.3,0.7c0.1,0.1,0.4,0.2,0.9,0.4l1.8,0.7
		c0.8,0.3,1.5,0.5,2.1,1.2c0.4,0.6,0.6,1.3,0.6,2.1c0,1.2-0.4,2.9-2,4.3C93.4,41.7,92,42,90.5,42c-1.2,0-2.7-0.2-3.7-1.6
		c-0.7-0.8-0.8-1.8-0.8-2.9c0-0.3,0-0.5,0-0.8H89.6z"/>
</g>
</svg>
