<?xml version="1.0" encoding="utf-8"?>
<!-- Generator: Adobe Illustrator 24.0.1, SVG Export Plug-In . SVG Version: 6.00 Build 0)  -->
<svg version="1.1" id="Camada_1" xmlns="http://www.w3.org/2000/svg" xmlns:xlink="http://www.w3.org/1999/xlink" x="0px" y="0px"
	 viewBox="0 0 201.4 43.3" style="enable-background:new 0 0 201.4 43.3;" xml:space="preserve">
<style type="text/css">
	.st0{fill:#FFFFFF;}
</style>
<g>
	<path class="st0" d="M11.1,29H5.7H2.1l3.1-14.7h3.7L6.5,25.6h5.3L11.1,29z"/>
	<path class="st0" d="M23.4,26.6c-1.3,1.6-3.2,2.8-5.8,2.8c-1.3,0-3-0.3-4.1-2c-0.8-1.2-0.9-2.5-0.9-3.6c0-2.6,1-5.4,2.5-7.2
		c2.1-2.5,4.5-2.8,5.8-2.8c1.4,0,3.1,0.4,4.1,2c0.6,0.9,0.9,2.3,0.9,3.6C25.8,22,24.9,24.8,23.4,26.6z M16.5,23.8
		c0,0.4,0,0.9,0.3,1.4c0.3,0.6,0.8,0.9,1.5,0.9c0.8,0,1.3-0.3,1.9-0.9c1-1.2,1.8-3.8,1.8-5.4c0-0.4,0-1.2-0.3-1.7
		c-0.2-0.5-0.7-0.9-1.5-0.9c-0.5,0-1.2,0.1-1.9,0.9c-1.1,1.1-1.5,3.3-1.6,3.6C16.5,22.4,16.5,23.1,16.5,23.8z"/>
	<path class="st0" d="M30.3,23.4l-0.1,0.5c-0.1,0.7-0.2,1.1-0.2,1.5c0,0.2,0,0.4,0.1,0.5c0.1,0.3,0.4,0.3,0.6,0.3
		c0.3,0,0.6-0.1,0.9-0.5c0.2-0.3,0.4-0.8,0.6-1.9l2-9.5h3.7l-2,9.2c-0.3,1.5-0.8,3.4-2.1,4.6c-1.2,1.2-2.6,1.3-3.7,1.3
		c-0.9,0-2-0.1-2.8-0.9c-0.9-0.9-0.9-1.9-0.9-2.5c0-0.8,0.1-1.3,0.2-1.7l0.1-0.9H30.3z"/>
	<path class="st0" d="M39.6,29h-3.7l7.7-14.7H47L48.6,29h-3.7l-0.2-2.4h-3.8L39.6,29z M44.6,23.8l-0.2-5l-2.3,5H44.6z"/>
</g>
</svg>
