<?xml version="1.0" encoding="utf-8"?>
<!-- Generator: Adobe Illustrator 24.0.1, SVG Export Plug-In . SVG Version: 6.00 Build 0)  -->
<svg version="1.1" id="Camada_1" xmlns="http://www.w3.org/2000/svg" xmlns:xlink="http://www.w3.org/1999/xlink" x="0px" y="0px"
	 viewBox="0 0 201.4 43.3" style="enable-background:new 0 0 201.4 43.3;" xml:space="preserve">
<style type="text/css">
	.st0{fill:#FFFFFF;}
</style>
<g>
	<path class="st0" d="M7,1.7h2.5c0.8,0,2.2,0.1,3.1,1.4c0.7,1,0.8,2,0.8,2.6c0,2.1-0.9,3.7-2,4.6c-1.1,0.9-2.6,1.5-4.2,1.5H5l-1,4.7
		H0.3L3.4,1.7H7z M5.7,8.5h1.5c0.7,0,1.3-0.2,1.7-0.5c0.4-0.3,0.7-0.9,0.7-1.6c0-0.4-0.1-0.8-0.3-1C8.9,5,8.4,5.1,7.9,5.1H6.4
		L5.7,8.5z"/>
	<path class="st0" d="M16.2,1.7h3.6h3.1c0.8,0,1.9,0.1,2.7,1.2c0.6,0.7,0.7,1.6,0.7,2.2c0,1.1-0.2,2.1-1,3.1c-0.4,0.6-1.1,1-1.9,1.4
		v0.1c0.4,0.1,0.7,0.4,0.9,0.7c0.3,0.4,0.4,0.9,0.4,1.3c0,0.6-0.1,1-0.2,1.4l-0.2,1.2c-0.1,0.3-0.1,0.6-0.1,1c0,0.4,0,0.7,0.2,1
		h-3.7c-0.1-0.2-0.2-0.5-0.2-0.8c0-0.1,0-0.4,0.1-1.1l0.2-1c0.1-0.4,0.1-0.7,0.1-1.2c0-0.2,0-0.6-0.4-0.9c-0.3-0.3-0.9-0.3-1.1-0.3
		h-1.4l-1.1,5.2h-3.7L16.2,1.7z M18.5,8.3h1.4c0.8,0,1.5-0.3,1.9-0.7c0.2-0.2,0.6-0.7,0.6-1.4c0-0.4-0.1-0.7-0.3-0.9
		c-0.3-0.3-0.7-0.3-1.1-0.3h-1.8L18.5,8.3z"/>
	<path class="st0" d="M33.1,1.7L30,16.4h-3.7l3.1-14.7H33.1z"/>
	<path class="st0" d="M38.3,6.4h-0.1l-2.1,10h-3.5l3.1-14.7h3.4h1.5l0.3,9.7H41l4.3-9.7h1.4h3.5l-3.1,14.7h-3.5l2.1-10h-0.1l-4.4,10
		h-2.7L38.3,6.4z"/>
	<path class="st0" d="M61,7.4l-0.6,3.1h-5.6L54.2,13h6.6l-0.7,3.4h-6.7h-3.6L53,1.7h3.6h6.6l-0.7,3.4h-6.4l-0.5,2.3H61z"/>
	<path class="st0" d="M68.8,1.7l-3.1,14.7H62l3.1-14.7H68.8z"/>
	<path class="st0" d="M71.4,1.7H75h3.1c0.8,0,1.9,0.1,2.7,1.2c0.6,0.7,0.7,1.6,0.7,2.2c0,1.1-0.2,2.1-1,3.1c-0.4,0.6-1.1,1-1.9,1.4
		v0.1c0.4,0.1,0.7,0.4,0.9,0.7c0.3,0.4,0.4,0.9,0.4,1.3c0,0.6-0.1,1-0.2,1.4l-0.2,1.2c-0.1,0.3-0.1,0.6-0.1,1c0,0.4,0,0.7,0.2,1
		h-3.7c-0.1-0.2-0.2-0.5-0.2-0.8c0-0.1,0-0.4,0.1-1.1l0.2-1c0.1-0.4,0.1-0.7,0.1-1.2c0-0.2,0-0.6-0.4-0.9c-0.3-0.3-0.9-0.3-1.1-0.3
		h-1.4L72,16.4h-3.7L71.4,1.7z M73.7,8.3h1.4c0.8,0,1.5-0.3,1.9-0.7c0.2-0.2,0.6-0.7,0.6-1.4c0-0.4-0.1-0.7-0.3-0.9
		c-0.3-0.3-0.7-0.3-1.1-0.3h-1.8L73.7,8.3z"/>
	<path class="st0" d="M93.1,14c-1.3,1.6-3.2,2.8-5.8,2.8c-1.3,0-3-0.3-4.1-2c-0.8-1.2-0.9-2.5-0.9-3.6c0-2.6,1-5.4,2.5-7.2
		c2.1-2.5,4.5-2.8,5.8-2.8c1.4,0,3.1,0.4,4.1,2c0.6,0.9,0.9,2.3,0.9,3.6C95.6,9.4,94.6,12.2,93.1,14z M86.2,11.2
		c0,0.4,0,0.9,0.3,1.4c0.3,0.6,0.8,0.9,1.5,0.9c0.8,0,1.3-0.3,1.9-0.9c1-1.2,1.8-3.8,1.8-5.4c0-0.4,0-1.2-0.3-1.7
		c-0.2-0.5-0.7-0.9-1.5-0.9c-0.5,0-1.2,0.1-1.9,0.9c-1.1,1.1-1.5,3.3-1.6,3.6C86.3,9.8,86.2,10.5,86.2,11.2z"/>
	<path class="st0" d="M100,11.6c-0.1,0.7-0.1,1.4,0.3,1.8c0.2,0.3,0.7,0.4,1.2,0.4c0.6,0,0.9-0.2,1.2-0.4c0.5-0.4,0.8-0.8,0.8-1.4
		c0-0.3,0-0.7-0.4-0.9c-0.2-0.2-0.5-0.2-1.2-0.5l-1.7-0.6c-0.7-0.2-1.3-0.5-1.8-1.2c-0.4-0.5-0.6-1.2-0.6-2c0-1.4,0.7-3.1,2.1-4.2
		c1.2-0.9,2.6-1.3,4.1-1.3c0.9,0,2.2,0.2,3.1,1c0.7,0.7,0.9,1.8,0.9,2.8c0,0.2,0,0.4,0,0.7h-3.5c0.1-0.5,0-0.9-0.2-1.1
		c-0.3-0.4-0.8-0.4-1-0.4c-0.4,0-0.8,0.1-1.2,0.4c-0.5,0.4-0.6,0.8-0.6,1.1c0,0.2,0,0.5,0.3,0.7c0.1,0.1,0.4,0.2,0.9,0.4l1.8,0.7
		c0.8,0.3,1.5,0.5,2.1,1.2c0.4,0.6,0.6,1.3,0.6,2.1c0,1.2-0.4,2.9-2,4.3c-1.4,1.2-2.8,1.6-4.4,1.6c-1.2,0-2.7-0.2-3.7-1.6
		c-0.7-0.8-0.8-1.8-0.8-2.9c0-0.3,0-0.5,0-0.8H100z"/>
	<path class="st0" d="M4.3,36.8c-0.1,0.7-0.1,1.4,0.3,1.8C4.9,38.9,5.3,39,5.8,39c0.6,0,0.9-0.2,1.2-0.4c0.5-0.4,0.8-0.8,0.8-1.4
		c0-0.3,0-0.7-0.4-0.9c-0.2-0.2-0.5-0.2-1.2-0.5l-1.7-0.6C3.9,35,3.2,34.7,2.7,34c-0.4-0.5-0.6-1.2-0.6-2c0-1.4,0.7-3.1,2.1-4.2
		c1.2-0.9,2.6-1.3,4.1-1.3c0.9,0,2.2,0.2,3.1,1c0.7,0.7,0.9,1.8,0.9,2.8c0,0.2,0,0.4,0,0.7H8.8c0.1-0.5,0-0.9-0.2-1.1
		c-0.3-0.4-0.8-0.4-1-0.4c-0.4,0-0.8,0.1-1.2,0.4c-0.5,0.4-0.6,0.8-0.6,1.1c0,0.2,0,0.5,0.3,0.7c0.1,0.1,0.4,0.2,0.9,0.4l1.8,0.7
		c0.8,0.3,1.5,0.5,2.1,1.2c0.4,0.6,0.6,1.3,0.6,2.1c0,1.2-0.4,2.9-2,4.3C8.1,41.7,6.7,42,5.1,42c-1.2,0-2.7-0.2-3.7-1.6
		c-0.7-0.8-0.8-1.8-0.8-2.9c0-0.3,0-0.5,0-0.8H4.3z"/>
	<path class="st0" d="M24.1,39.2c-1.3,1.6-3.2,2.8-5.8,2.8c-1.3,0-3-0.3-4.1-2c-0.8-1.2-0.9-2.5-0.9-3.6c0-2.6,1-5.4,2.5-7.2
		c2.1-2.5,4.5-2.8,5.8-2.8c1.4,0,3.1,0.4,4.1,2c0.6,0.9,0.9,2.3,0.9,3.6C26.5,34.6,25.5,37.4,24.1,39.2z M17.1,36.4
		c0,0.4,0,0.9,0.3,1.4c0.3,0.6,0.8,0.9,1.5,0.9c0.8,0,1.3-0.3,1.9-0.9c1-1.2,1.8-3.8,1.8-5.4c0-0.4,0-1.2-0.3-1.7
		c-0.2-0.5-0.7-0.9-1.5-0.9c-0.5,0-1.2,0.1-1.9,0.9c-1.1,1.1-1.5,3.3-1.6,3.6C17.2,35,17.1,35.7,17.1,36.4z"/>
	<path class="st0" d="M39.6,36.3c-0.4,1.4-1.1,2.9-2.2,3.9c-1.4,1.4-3,1.8-4.7,1.8c-1.3,0-2.9-0.3-4.1-2c-0.7-1.1-0.9-2.3-0.9-3.4
		c0-2.9,0.9-5.5,2.5-7.4C32,27,34,26.5,36,26.5c0.9,0,2.2,0.1,3.2,1.3c1.1,1.2,1.2,3,1.2,3.8V32h-3.6v-0.3c0-0.4,0-0.9-0.3-1.3
		c-0.3-0.5-0.8-0.6-1.2-0.6c-0.8,0-1.3,0.3-1.9,0.9c-1.1,1.2-1.8,3.5-1.8,5.6c0,0.4,0,1,0.3,1.5c0.4,0.7,0.9,0.8,1.6,0.8
		c0.6,0,1-0.1,1.5-0.6c0.5-0.4,0.8-1.1,0.9-1.7H39.6z"/>
	<path class="st0" d="M52,39.2c-1.3,1.6-3.2,2.8-5.8,2.8c-1.3,0-3-0.3-4.1-2c-0.8-1.2-0.9-2.5-0.9-3.6c0-2.6,1-5.4,2.5-7.2
		c2.1-2.5,4.5-2.8,5.8-2.8c1.4,0,3.1,0.4,4.1,2c0.6,0.9,0.9,2.3,0.9,3.6C54.5,34.6,53.5,37.4,52,39.2z M45.1,36.4
		c0,0.4,0,0.9,0.3,1.4c0.3,0.6,0.8,0.9,1.5,0.9c0.8,0,1.3-0.3,1.9-0.9c1-1.2,1.8-3.8,1.8-5.4c0-0.4,0-1.2-0.3-1.7
		c-0.2-0.5-0.7-0.9-1.5-0.9c-0.5,0-1.2,0.1-1.9,0.9c-1.1,1.1-1.5,3.3-1.6,3.6C45.2,35,45.1,35.7,45.1,36.4z"/>
	<path class="st0" d="M58,26.9h3.6h3.1c0.8,0,1.9,0.1,2.7,1.2c0.6,0.7,0.7,1.6,0.7,2.2c0,1.1-0.2,2.1-1,3.1c-0.4,0.6-1.1,1-1.9,1.4
		v0.1c0.4,0.1,0.7,0.4,0.9,0.7c0.3,0.4,0.4,0.9,0.4,1.3c0,0.6-0.1,1-0.2,1.4L66,39.5c-0.1,0.3-0.1,0.6-0.1,1c0,0.4,0,0.7,0.2,1h-3.7
		c-0.1-0.2-0.2-0.5-0.2-0.8c0-0.1,0-0.4,0.1-1.1l0.2-1c0.1-0.4,0.1-0.7,0.1-1.2c0-0.2,0-0.6-0.4-0.9c-0.3-0.3-0.9-0.3-1.1-0.3h-1.4
		l-1.1,5.2h-3.7L58,26.9z M60.3,33.5h1.4c0.8,0,1.5-0.3,1.9-0.7c0.2-0.2,0.6-0.7,0.6-1.4c0-0.4-0.1-0.7-0.3-0.9
		c-0.3-0.3-0.7-0.3-1.1-0.3H61L60.3,33.5z"/>
	<path class="st0" d="M71.2,26.9h3.6h3.1c0.8,0,1.9,0.1,2.7,1.2c0.6,0.7,0.7,1.6,0.7,2.2c0,1.1-0.2,2.1-1,3.1
		c-0.4,0.6-1.1,1-1.9,1.4v0.1c0.4,0.1,0.7,0.4,0.9,0.7c0.3,0.4,0.4,0.9,0.4,1.3c0,0.6-0.1,1-0.2,1.4l-0.2,1.2
		c-0.1,0.3-0.1,0.6-0.1,1c0,0.4,0,0.7,0.2,1h-3.7c-0.1-0.2-0.2-0.5-0.2-0.8c0-0.1,0-0.4,0.1-1.1l0.2-1c0.1-0.4,0.1-0.7,0.1-1.2
		c0-0.2,0-0.6-0.4-0.9c-0.3-0.3-0.9-0.3-1.1-0.3h-1.4l-1.1,5.2h-3.7L71.2,26.9z M73.5,33.5h1.4c0.8,0,1.5-0.3,1.9-0.7
		c0.2-0.2,0.6-0.7,0.6-1.4c0-0.4-0.1-0.7-0.3-0.9c-0.3-0.3-0.7-0.3-1.1-0.3h-1.8L73.5,33.5z"/>
	<path class="st0" d="M92.9,39.2c-1.3,1.6-3.2,2.8-5.8,2.8c-1.3,0-3-0.3-4.1-2c-0.8-1.2-0.9-2.5-0.9-3.6c0-2.6,1-5.4,2.5-7.2
		c2.1-2.5,4.5-2.8,5.8-2.8c1.4,0,3.1,0.4,4.1,2c0.6,0.9,0.9,2.3,0.9,3.6C95.4,34.6,94.4,37.4,92.9,39.2z M86,36.4
		c0,0.4,0,0.9,0.3,1.4c0.3,0.6,0.8,0.9,1.5,0.9c0.8,0,1.3-0.3,1.9-0.9c1-1.2,1.8-3.8,1.8-5.4c0-0.4,0-1.2-0.3-1.7
		c-0.2-0.5-0.7-0.9-1.5-0.9c-0.5,0-1.2,0.1-1.9,0.9c-1.1,1.1-1.5,3.3-1.6,3.6C86.1,35,86,35.7,86,36.4z"/>
	<path class="st0" d="M99.8,36.8c-0.1,0.7-0.1,1.4,0.3,1.8c0.2,0.3,0.7,0.4,1.2,0.4c0.6,0,0.9-0.2,1.2-0.4c0.5-0.4,0.8-0.8,0.8-1.4
		c0-0.3,0-0.7-0.4-0.9c-0.2-0.2-0.5-0.2-1.2-0.5l-1.7-0.6c-0.7-0.2-1.3-0.5-1.8-1.2c-0.4-0.5-0.6-1.2-0.6-2c0-1.4,0.7-3.1,2.1-4.2
		c1.2-0.9,2.6-1.3,4.1-1.3c0.9,0,2.2,0.2,3.1,1c0.7,0.7,0.9,1.8,0.9,2.8c0,0.2,0,0.4,0,0.7h-3.5c0.1-0.5,0-0.9-0.2-1.1
		c-0.3-0.4-0.8-0.4-1-0.4c-0.4,0-0.8,0.1-1.2,0.4c-0.5,0.4-0.6,0.8-0.6,1.1c0,0.2,0,0.5,0.3,0.7c0.1,0.1,0.4,0.2,0.9,0.4l1.8,0.7
		c0.8,0.3,1.5,0.5,2.1,1.2c0.4,0.6,0.6,1.3,0.6,2.1c0,1.2-0.4,2.9-2,4.3c-1.4,1.2-2.8,1.6-4.4,1.6c-1.2,0-2.7-0.2-3.7-1.6
		c-0.7-0.8-0.8-1.8-0.8-2.9c0-0.3,0-0.5,0-0.8H99.8z"/>
</g>
</svg>
