<?xml version="1.0" encoding="utf-8"?>
<!-- Generator: Adobe Illustrator 24.0.1, SVG Export Plug-In . SVG Version: 6.00 Build 0)  -->
<svg version="1.1" id="Camada_1" xmlns="http://www.w3.org/2000/svg" xmlns:xlink="http://www.w3.org/1999/xlink" x="0px" y="0px"
	 viewBox="0 0 201.4 43.3" style="enable-background:new 0 0 201.4 43.3;" xml:space="preserve">
<style type="text/css">
	.st0{fill:#FFFFFF;}
</style>
<g>
	<path class="st0" d="M8.2,14.3h3.6h3.1c0.8,0,1.9,0.1,2.7,1.2c0.6,0.7,0.7,1.6,0.7,2.2c0,1.1-0.2,2.1-1,3.1c-0.4,0.6-1.1,1-1.9,1.4
		v0.1c0.4,0.1,0.7,0.4,0.9,0.7c0.3,0.4,0.4,0.9,0.4,1.3c0,0.6-0.1,1-0.2,1.4l-0.2,1.2c-0.1,0.3-0.1,0.6-0.1,1c0,0.4,0,0.7,0.2,1
		h-3.7c-0.1-0.2-0.2-0.5-0.2-0.8c0-0.1,0-0.4,0.1-1.1l0.2-1c0.1-0.4,0.1-0.7,0.1-1.2c0-0.2,0-0.6-0.4-0.9c-0.3-0.3-0.9-0.3-1.1-0.3
		H9.9L8.7,29H5.1L8.2,14.3z M10.4,20.9h1.4c0.8,0,1.5-0.3,1.9-0.7c0.2-0.2,0.6-0.7,0.6-1.4c0-0.4-0.1-0.7-0.3-0.9
		c-0.3-0.3-0.7-0.3-1.1-0.3h-1.8L10.4,20.9z"/>
	<path class="st0" d="M20.6,29h-3.7l7.7-14.7H28L29.6,29h-3.7l-0.2-2.4h-3.8L20.6,29z M25.6,23.8l-0.2-5l-2.3,5H25.6z"/>
	<path class="st0" d="M36.2,20.6L34.4,29h-3.7l3.1-14.7h3.7l2,8.4h0.1l1.8-8.4h3.7L42,29h-3.7L36.2,20.6L36.2,20.6z"/>
	<path class="st0" d="M55.5,14.3h4.1l-6.2,6.3l3.5,8.4h-4.4l-2.1-5.7l-1.2,1.2L48.3,29h-3.7l3.1-14.7h3.7l-1.2,5.3L55.5,14.3z"/>
	<path class="st0" d="M64.9,14.3L61.8,29h-3.7l3.1-14.7H64.9z"/>
	<path class="st0" d="M69.9,20.6L68.1,29h-3.7l3.1-14.7h3.7l2,8.4h0.1l1.8-8.4h3.7L75.7,29H72L69.9,20.6L69.9,20.6z"/>
	<path class="st0" d="M91.9,20.9L90.2,29h-2.7l0.2-1.4c-0.5,0.5-1.1,1-1.7,1.3c-0.8,0.4-1.5,0.5-2.4,0.5c-1.3,0-2.7-0.3-3.7-2
		c-0.3-0.6-0.8-1.6-0.8-3.5c0-2.7,1-5.5,2.5-7.3c1.8-2.2,3.9-2.8,5.9-2.8c1.2,0,2.7,0.2,3.8,1.5c0.8,1,1,2.3,0.9,3.8h-3.8
		c0.1-0.6,0-1.1-0.3-1.6c-0.4-0.5-0.8-0.5-1.2-0.5c-1,0-1.7,0.5-2.1,1c-1.2,1.4-1.8,3.8-1.8,5.5c0,0.7,0.1,1.3,0.3,1.6
		c0.4,0.8,1.2,0.9,1.7,0.9c0.7,0,1.3-0.3,1.8-0.8c0.4-0.4,0.8-0.9,1-1.5h-1.9l0.6-2.9H91.9z"/>
</g>
</svg>
