<?xml version="1.0" encoding="utf-8"?>
<!-- Generator: Adobe Illustrator 24.0.1, SVG Export Plug-In . SVG Version: 6.00 Build 0)  -->
<svg version="1.1" id="Camada_1" xmlns="http://www.w3.org/2000/svg" xmlns:xlink="http://www.w3.org/1999/xlink" x="0px" y="0px"
	 viewBox="0 0 201.4 43.3" style="enable-background:new 0 0 201.4 43.3;" xml:space="preserve">
<style type="text/css">
	.st0{fill:#FFFFFF;}
</style>
<g>
	<path class="st0" d="M2.2,17.7l0.7-3.4h3.5H10h3.6l-0.7,3.4H9.4L7,29H3.3l2.4-11.3H2.2z"/>
	<path class="st0" d="M12.8,29H9.1l7.7-14.7h3.4L21.8,29h-3.7l-0.2-2.4H14L12.8,29z M17.8,23.8l-0.2-5l-2.3,5H17.8z"/>
	<path class="st0" d="M26,14.3h3.6h3.1c0.8,0,1.9,0.1,2.7,1.2c0.6,0.7,0.7,1.6,0.7,2.2c0,1.1-0.2,2.1-1,3.1c-0.4,0.6-1.1,1-1.9,1.4
		v0.1c0.4,0.1,0.7,0.4,0.9,0.7c0.3,0.4,0.4,0.9,0.4,1.3c0,0.6-0.1,1-0.2,1.4L34,26.9c-0.1,0.3-0.1,0.6-0.1,1c0,0.4,0,0.7,0.2,1h-3.7
		c-0.1-0.2-0.2-0.5-0.2-0.8c0-0.1,0-0.4,0.1-1.1l0.2-1c0.1-0.4,0.1-0.7,0.1-1.2c0-0.2,0-0.6-0.4-0.9c-0.3-0.3-0.9-0.3-1.1-0.3h-1.4
		L26.6,29h-3.7L26,14.3z M28.3,20.9h1.4c0.8,0,1.5-0.3,1.9-0.7c0.2-0.2,0.6-0.7,0.6-1.4c0-0.4-0.1-0.7-0.3-0.9
		c-0.3-0.3-0.7-0.3-1.1-0.3H29L28.3,20.9z"/>
	<path class="st0" d="M47.2,20l-0.6,3.1H41l-0.6,2.5h6.6L46.4,29h-6.7h-3.6l3.1-14.7h3.6h6.6l-0.7,3.4h-6.4L41.7,20H47.2z"/>
	<path class="st0" d="M58.6,20.4l-0.7,3.2h-4.9L51.9,29h-3.7l3.1-14.7H55h5.9l-0.7,3.4h-5.9l-0.5,2.6H58.6z"/>
	<path class="st0" d="M61.1,29h-3.7l7.7-14.7h3.4L70.1,29h-3.7l-0.2-2.4h-3.8L61.1,29z M66.1,23.8l-0.2-5l-2.3,5H66.1z"/>
	<path class="st0" d="M75.2,24.2c-0.1,0.7-0.1,1.4,0.3,1.8c0.2,0.3,0.7,0.4,1.2,0.4c0.6,0,0.9-0.2,1.2-0.4c0.5-0.4,0.8-0.8,0.8-1.4
		c0-0.3,0-0.7-0.4-0.9c-0.2-0.2-0.5-0.2-1.2-0.5l-1.7-0.6c-0.7-0.2-1.3-0.5-1.8-1.2c-0.4-0.5-0.6-1.2-0.6-2c0-1.4,0.7-3.1,2.1-4.2
		c1.2-0.9,2.6-1.3,4.1-1.3c0.9,0,2.2,0.2,3.1,1c0.7,0.7,0.9,1.8,0.9,2.8c0,0.2,0,0.4,0,0.7h-3.5c0.1-0.5,0-0.9-0.2-1.1
		c-0.3-0.4-0.8-0.4-1-0.4c-0.4,0-0.8,0.1-1.2,0.4c-0.5,0.4-0.6,0.8-0.6,1.1c0,0.2,0,0.5,0.3,0.7c0.1,0.1,0.4,0.2,0.9,0.4l1.8,0.7
		c0.8,0.3,1.5,0.5,2.1,1.2c0.4,0.6,0.6,1.3,0.6,2.1c0,1.2-0.4,2.9-2,4.3c-1.4,1.2-2.8,1.6-4.4,1.6c-1.2,0-2.7-0.2-3.7-1.6
		c-0.7-0.8-0.8-1.8-0.8-2.9c0-0.3,0-0.5,0-0.8H75.2z"/>
	<path class="st0" d="M95,14.3h2.2c1.1,0,2.5,0.2,3.7,1.7c0.8,1.1,0.9,2.5,0.9,3.5c0,1.3-0.2,2.5-0.6,3.5c-0.5,1.6-1.5,3.1-2.7,4.2
		C97.6,28,96,29,93.6,29h-1.7h-3.6l3.1-14.7H95z M92.7,25.6h1.1c1.4,0,2.4-0.8,2.9-1.5c0.8-1,1.3-2.3,1.3-4c0-0.5,0-1.2-0.4-1.7
		c-0.5-0.7-1.3-0.7-2-0.7h-1.2L92.7,25.6z"/>
	<path class="st0" d="M113.8,26.6c-1.3,1.6-3.2,2.8-5.8,2.8c-1.3,0-3-0.3-4.1-2c-0.8-1.2-0.9-2.5-0.9-3.6c0-2.6,1-5.4,2.5-7.2
		c2.1-2.5,4.5-2.8,5.8-2.8c1.4,0,3.1,0.4,4.1,2c0.6,0.9,0.9,2.3,0.9,3.6C116.3,22,115.3,24.8,113.8,26.6z M106.9,23.8
		c0,0.4,0,0.9,0.3,1.4c0.3,0.6,0.8,0.9,1.5,0.9c0.8,0,1.3-0.3,1.9-0.9c1-1.2,1.8-3.8,1.8-5.4c0-0.4,0-1.2-0.3-1.7
		c-0.2-0.5-0.7-0.9-1.5-0.9c-0.5,0-1.2,0.1-1.9,0.9c-1.1,1.1-1.5,3.3-1.6,3.6C107,22.4,106.9,23.1,106.9,23.8z"/>
	<path class="st0" d="M128.3,14.3h2.2c1.1,0,2.5,0.2,3.7,1.7c0.8,1.1,0.9,2.5,0.9,3.5c0,1.3-0.2,2.5-0.6,3.5
		c-0.5,1.6-1.5,3.1-2.7,4.2c-0.9,0.8-2.5,1.7-4.9,1.7h-1.7h-3.6l3.1-14.7H128.3z M126,25.6h1.1c1.4,0,2.4-0.8,2.9-1.5
		c0.8-1,1.3-2.3,1.3-4c0-0.5,0-1.2-0.4-1.7c-0.5-0.7-1.3-0.7-2-0.7h-1.2L126,25.6z"/>
	<path class="st0" d="M142.4,14.3L139.3,29h-3.7l3.1-14.7H142.4z"/>
	<path class="st0" d="M144.3,29h-3.7l7.7-14.7h3.4l1.6,14.7h-3.7l-0.2-2.4h-3.8L144.3,29z M149.3,23.8l-0.2-5l-2.3,5H149.3z"/>
</g>
</svg>
